# xmcd
#
# Track frame offsets: 
#        150
#        19066
#        29881
#        45672
#        63135
#        79063
#        96418
#        116745
#        135205
#        151781
#        174257
#
# Disc length: 2602 seconds
#
# Revision: 0
# Processed by: cddbd v1.5.2PL0 Copyright (c) Steve Scherf et al.
# Submitted via: ExactAudioCopy v1.0b1
#
DISCID=830a280b
DTITLE=Michael Kiwanuka - Home Again
DYEAR=2012
DGENRE=Soul
TTITLE0=Tell me a tale
TTITLE1=I'm getting ready
TTITLE2=I'll get along
TTITLE3=Rest
TTITLE4=Home again
TTITLE5=Bones
TTITLE6=Always waiting
TTITLE7=I won't lie
TTITLE8=Any day will do fine
TTITLE9=Worry walks beside me
TTITLE10=Lasan
EXTD=
EXTT0=
EXTT1=
EXTT2=
EXTT3=
EXTT4=
EXTT5=
EXTT6=
EXTT7=
EXTT8=
EXTT9=
EXTT10=
PLAYORDER=
